<?xml version="1.0" encoding="UTF-8" standalone="no"?>
<svg
   xmlns:dc="http://purl.org/dc/elements/1.1/"
   xmlns:cc="http://creativecommons.org/ns#"
   xmlns:rdf="http://www.w3.org/1999/02/22-rdf-syntax-ns#"
   xmlns:svg="http://www.w3.org/2000/svg"
   xmlns="http://www.w3.org/2000/svg"
   viewBox="0 0 486.66666 193.53333"
   height="193.53333"
   width="486.66666"
   xml:space="preserve"
   id="svg2"
   version="1.1"><metadata
     id="metadata8"><rdf:RDF><cc:Work
         rdf:about=""><dc:format>image/svg+xml</dc:format><dc:type
           rdf:resource="http://purl.org/dc/dcmitype/StillImage" /></cc:Work></rdf:RDF></metadata><defs
     id="defs6" /><g
     transform="matrix(1.3333333,0,0,-1.3333333,0,193.53333)"
     id="g10"><g
       transform="scale(0.1)"
       id="g12"><path
         id="path14"
         style="fill:#4361b6;fill-opacity:1;fill-rule:nonzero;stroke:none"
         d="m 1079.9,155.281 c -4.51,11.77 1.67,19.43 25.4,31.5 47.96,24.391 59.9,43.641 65.16,105.098 1.86,21.742 3.03,130.121 2.6,240.844 -0.74,186.699 -1.31,202.511 -7.9,217.707 -7.08,16.324 -28.54,37.945 -45.24,45.582 -4.83,2.207 -16.96,7.695 -26.95,12.195 -13.97,6.289 -18.16,10.188 -18.12,16.859 0.14,20.879 -4.81,20.27 155.7,19.102 81.61,-0.598 161.29,0.266 177.07,1.914 38.92,4.07 52.63,2.387 55.54,-6.816 4.04,-12.75 -1.7,-22.094 -16.51,-26.871 -62.8,-20.247 -75.88,-46.872 -80.88,-164.629 -3.3,-77.715 -1.95,-353.754 1.82,-373.875 9.11,-48.571 23.34,-67.301 63.26,-83.25 18,-7.2 25.51,-12.403 28.04,-19.403 7.94,-22.027 15.8,-21.16 -189.02,-21.066 -151.6,0.058 -188.42,1.058 -189.97,5.109 z m 1291.77,-6.59 c -12.07,1.7 -15.09,6.547 -11.79,18.938 2.05,7.68 8.28,12.101 28.76,20.41 40.8,16.57 59.74,39.242 65.41,78.27 1.52,10.492 3.44,22.531 4.27,26.75 0.83,4.222 2.51,85.32 3.73,180.226 2.31,178.785 -0.65,248.524 -11.64,274.789 -8.04,19.227 -34.38,41.16 -61.71,51.379 -22.41,8.387 -22.77,8.754 -22.77,23.324 v 14.801 h 378.73 v -13.004 c 0,-14.508 -1.91,-16.094 -32.89,-27.301 -29.03,-10.496 -46.85,-29.046 -54.48,-56.707 -7.69,-27.871 -11.64,-99.035 -10.4,-187.437 0.45,-32.535 23.3,-37.141 61.5,-12.391 43.07,27.903 132.81,108.575 171,153.719 28.77,34.004 39.34,53.926 39.34,74.141 0,17.34 -9.78,27.496 -34.43,35.765 -18.08,6.063 -21.22,8.559 -22.3,17.727 -0.69,5.871 0.4,12.328 2.42,14.351 2.15,2.153 33.59,3.317 75.85,2.797 39.7,-0.484 104.36,-0.55 143.69,-0.148 66.5,0.68 71.78,0.223 75.36,-6.481 9.07,-16.984 -0.97,-26.879 -35.92,-35.421 -33.49,-8.184 -94.24,-39.727 -139.59,-72.481 -36.76,-26.551 -76.34,-57.281 -84.21,-65.387 -1.05,-1.082 -11.81,-10.3 -23.91,-20.48 -17.95,-15.106 -22,-20.668 -22,-30.227 0,-12.793 10.71,-32.484 28.22,-51.894 6.17,-6.84 13.11,-15.742 15.41,-19.781 3.59,-6.297 21.77,-30.083 70.41,-92.129 5.66,-7.231 18.9,-23.739 29.42,-36.7 10.52,-12.961 23.44,-29.328 28.7,-36.359 5.26,-7.039 11.28,-14.68 13.39,-16.98 2.1,-2.309 16.5,-18.86 31.99,-36.79 40.22,-46.539 83.82,-90.75 103.81,-105.25 9.47,-6.871 31.85,-17.73 49.74,-24.128 32.06,-11.473 32.51,-11.813 32.51,-24.532 v -12.89 l -26.78,-2.399 c -14.72,-1.32 -80.24,-2.621 -145.58,-2.883 -118.7,-0.468 -118.82,-0.468 -130.87,8.442 -11.88,8.789 -24.51,24.398 -65.94,81.519 -11.57,15.95 -28.35,38.25 -37.3,49.563 -8.94,11.297 -16.25,22.058 -16.25,23.918 0,1.859 -5.17,8.332 -11.48,14.398 -6.31,6.063 -11.48,12.614 -11.48,14.551 0,6.289 -91.46,128.149 -105.38,140.391 -15.82,13.925 -30.77,15.304 -44.92,4.148 -5.38,-4.242 -11.08,-13.305 -12.66,-20.133 -4.3,-18.617 -2.3,-165.715 2.67,-196.476 5.06,-31.27 7.91,-37.84 23.69,-54.547 8.04,-8.524 20.99,-15.481 41.62,-22.363 l 29.95,-10 v -15.028 c 0,-9.172 -1.87,-15.23 -4.78,-15.57 -10.81,-1.242 -361.32,-1.262 -370.13,-0.039 z m -894,2.989 c -0.99,2.582 -1.23,8.539 -0.53,13.242 1.01,6.898 7.65,10.918 34.29,20.797 18.17,6.73 38.4,16.07 44.96,20.75 37.1,26.48 50.03,70.152 55.87,188.64 1.29,26.129 3.96,75.973 5.93,110.774 1.98,34.797 3.61,95.262 3.63,134.363 0.04,77.805 -5.05,109.434 -20.24,125.766 -11.55,12.422 -38.59,25.66 -67.99,33.281 -28.7,7.441 -34.16,11.133 -34.16,23.102 0,21.695 -3.86,20.933 106.57,20.976 56.06,0.024 122.35,1.836 147.32,4.031 53.95,4.743 48.49,7.786 86.09,-47.89 14.34,-21.246 31.57,-46.391 38.28,-55.883 6.71,-9.488 15.14,-21.57 18.72,-26.844 15.72,-23.121 51.2,-70.187 80.94,-107.367 37.11,-46.383 62.57,-77.77 65.32,-80.527 1.05,-1.055 12.24,-13.996 24.86,-28.762 12.63,-14.762 26.14,-30.293 30.03,-34.512 3.89,-4.215 17.58,-20.308 30.41,-35.765 12.83,-15.454 28.37,-30.704 34.52,-33.891 10.11,-5.242 11.8,-5.199 17.42,0.437 13.11,13.172 2.85,277.954 -12.94,333.813 -8.92,31.539 -43.39,61.332 -82.62,71.41 -22.79,5.856 -32.02,14.758 -28.77,27.738 l 2.34,9.344 146.35,-1.406 146.36,-1.406 1.15,-12.95 c 1.13,-12.683 0.65,-13.132 -22.95,-21.742 -31.76,-11.586 -46.71,-22.168 -64.1,-45.363 -22.9,-30.543 -30.18,-61.848 -36.71,-157.922 -1.36,-20.035 -3.36,-41.605 -4.43,-47.934 -1.07,-6.328 -2.2,-97.785 -2.5,-203.242 -0.29,-105.449 -1.93,-193.886 -3.63,-196.519 -2.25,-3.489 -18.96,-4.797 -61.45,-4.797 h -58.35 l -9.69,10.547 c -5.32,5.801 -27.73,34.703 -49.78,64.23 -79.03,105.821 -90,120.039 -159.77,207.071 -159.44,198.89 -179.52,223.347 -190.39,231.925 -13.7,10.797 -23.46,9.836 -28.41,-2.804 -4.22,-10.766 -1.37,-265.18 3.18,-284.172 l 4.68,-52.34 c 11.04,-80.367 31.27,-106.969 100.72,-132.43 24.19,-8.879 31.39,-17.41 26.31,-31.179 l -3.28,-8.899 -155.88,-0.191 c -119.49,-0.141 -156.3,0.91 -157.68,4.5 z m -471.74,-15.641 c -46.418,11.691 -147.914,13.742 -571.641,11.563 l -49.449,-0.262 -2.699,10.101 c -1.489,5.547 -1.614,11.739 -0.286,13.758 1.333,2.012 14.891,8.403 30.137,14.199 31.469,11.961 51.36,31.262 59.371,57.614 5.453,17.929 6.953,454.976 1.668,485.937 -5.097,29.856 -23.476,49.649 -63.84,68.762 -33.226,15.734 -34.48,16.793 -34.48,29.059 0,7 1.293,12.757 2.867,12.796 1.578,0.047 91.836,0.739 200.574,1.559 213.016,1.605 202.071,2.555 202.071,-17.477 0,-5.156 -4.543,-9.351 -14.344,-13.234 -33.715,-13.363 -50.957,-22.543 -59.887,-31.891 -10.922,-11.433 -23.476,-38.304 -27.043,-57.902 -8.308,-45.601 -12.469,-376.43 -5.609,-445.91 4.93,-49.941 10.617,-64.531 29.824,-76.5 13.195,-8.223 17.609,-8.672 82.797,-8.371 61.789,0.281 71.121,1.191 90.867,8.91 46.164,18.02 79.141,57.211 131.012,155.672 12.22,23.187 24.81,45.199 27.97,48.887 6.95,8.121 30.61,8.972 40.85,1.461 7.97,-5.84 9.53,7.121 -20.79,-173.059 -6.39,-37.973 -11.63,-73.652 -11.65,-79.301 -0.03,-9.59 -8.79,-22.73 -14.65,-21.988 -1.43,0.18 -12.06,2.699 -23.64,5.617 v 0" /><path
         id="path16"
         style="fill:#404042;fill-opacity:1;fill-rule:nonzero;stroke:none"
         d="m 2034.6,1072.52 c -5.16,5.07 -5.13,7.58 0.26,23.11 8.02,23.11 92.51,185.68 101.55,195.4 5.83,6.27 3.68,17.16 -3.4,17.18 -3.69,0 -23.51,-3.65 -44.02,-8.13 -30.58,-6.69 -38.37,-7.29 -43.22,-3.33 -15.88,12.93 -5.62,17.89 63.23,30.55 24.3,4.47 47,9.58 50.43,11.36 3.44,1.78 11.95,12.19 18.92,23.15 22.97,36.09 42.07,51.09 42.07,33.04 0,-4.19 -4.45,-14.53 -9.88,-22.98 -5.43,-8.45 -9.04,-17.51 -8.01,-20.14 1.05,-2.7 12.08,-5.92 25.25,-7.38 19.43,-2.16 23.37,-3.8 23.37,-9.73 0,-9.82 -2.71,-10.87 -35.05,-13.61 -15.59,-1.32 -32.08,-4.69 -36.65,-7.49 -4.57,-2.79 -16.91,-20.84 -27.43,-40.09 -42.43,-77.74 -81.35,-154.53 -85.08,-167.91 -4.62,-16.59 -17.71,-38.69 -22.92,-38.69 -1.99,0 -6.23,2.56 -9.42,5.69 z M 967.133,1183.41 c 20.965,10.61 46.597,33.52 59.037,52.78 10.89,16.86 14.27,35.58 7.2,39.87 -9.97,6.05 -46.929,-26.33 -77.999,-68.31 -22.273,-30.11 -17.824,-39.31 11.762,-24.34 z M 699,1064.67 c 0,4.28 -1.582,7.28 -5.305,10.06 -6.172,4.61 15.485,49.45 54.164,112.13 19.614,31.79 35.664,58.5 35.664,59.35 0,0.86 8.145,13.88 18.094,28.94 26.414,39.97 44.082,75.34 39.758,79.58 -2.297,2.25 -10.176,1.78 -21.301,-1.28 -13.578,-3.73 -22.047,-9.74 -36.652,-26 -10.449,-11.63 -19.024,-23.13 -19.055,-25.55 -0.035,-2.42 -1.418,-4.96 -3.09,-5.65 -1.668,-0.7 -8.347,-8.9 -14.839,-18.23 -20.286,-29.16 -56.969,-84.68 -58.559,-88.63 -0.832,-2.07 -9.566,-15.64 -19.402,-30.16 -9.84,-14.52 -23.688,-36.59 -30.778,-49.03 -7.09,-12.44 -15.355,-25.46 -18.371,-28.92 -5.086,-5.84 -6.015,-5.85 -12.851,-0.11 -9.297,7.82 -9.223,10.64 0.793,29.09 6.851,12.62 60.918,95.45 78.726,120.62 12.195,17.23 34.172,49.48 37.859,55.54 2.18,3.59 10.622,16.85 18.758,29.47 8.141,12.63 13.696,24.04 12.348,25.36 -3.246,3.19 -56.91,1.45 -100.141,-3.23 -19.019,-2.06 -40.875,-2.72 -48.566,-1.45 -16.098,2.66 -31.547,16.75 -29.477,26.91 1.582,7.76 6.004,7.87 45.383,1.18 26,-4.41 97.676,-2.32 137.281,4.01 12.684,2.02 24.981,6.68 30.086,11.39 7.313,6.74 9.957,7.28 17.2,3.47 9.539,-5.01 31.8,-2.67 51.503,5.41 9.481,3.88 16.336,12.01 28.536,33.83 8.832,15.8 18.605,28.72 21.722,28.72 7.348,0 7.184,-2.09 -2.258,-28.63 -5.281,-14.87 -7.179,-27.01 -5.703,-36.49 1.946,-12.49 1.102,-14.63 -6.941,-17.64 -10.34,-3.85 -22.184,-21.51 -70.195,-104.64 -9.809,-16.98 -11.696,-27.55 -4.914,-27.55 3.878,0 52.867,43.53 63.652,56.56 5.836,7.06 15.953,1.9 24.18,-12.31 5.222,-9.03 4.507,-12.15 -10.567,-46.11 -8.89,-20.04 -16.168,-42.23 -16.168,-49.34 0,-11.23 1.242,-12.91 9.504,-12.91 6.551,0 11.258,3.31 15.125,10.66 9.383,17.8 52.235,72.82 74.973,96.26 24.124,24.86 36.904,32.61 53.784,32.61 29.02,0 33.8,-62.45 7.55,-98.64 -18.86,-26 -62.752,-57.89 -108.787,-79.03 -25.703,-11.81 -34.52,-24.45 -24.95,-35.76 11.481,-13.58 68.844,-0.54 104.597,23.78 12.29,8.36 15.36,9.14 18.27,4.63 1.92,-2.99 3.52,-7.31 3.55,-9.63 0.36,-25.55 -95.323,-63.97 -127.366,-51.15 -10.426,4.16 -23.625,23.33 -26.011,37.76 -1.665,10.05 -5.442,15.28 -14.977,20.75 -15.895,9.11 -20.449,5.59 -31.051,-24.03 -7.965,-22.25 -16.433,-27.67 -23.363,-14.96 -6.016,11.04 -2.188,25.05 20.086,73.54 27.812,60.55 28.758,62.79 33.023,78.26 3.535,12.82 3.199,14.14 -3.617,14.14 -14.078,0 -62.211,-53.35 -86.293,-95.64 -5.672,-9.96 -12.68,-19 -15.574,-20.09 -2.891,-1.09 -5.258,-5.01 -5.258,-8.72 0,-3.7 -2.594,-7.71 -5.762,-8.9 -3.172,-1.2 -5.773,-5.2 -5.785,-8.89 -0.027,-9.04 -27.402,-44.07 -35.66,-45.63 -3.617,-0.68 -6.582,-0.27 -6.582,0.92 z m 1830.13,101.15 c 32.25,32.09 52.75,70.72 37.52,70.72 -2.55,0 -31.94,-27.76 -53.91,-50.91 -16.89,-17.8 -23.74,-43.37 -11.62,-43.37 2.37,0 14.98,10.6 28.01,23.56 z m -188.84,-109.55 c -10.79,10.6 0.2,58.13 29.44,127.36 11.59,27.43 11.45,37.52 -0.47,33.03 -2.94,-1.11 -12.84,-14.48 -22,-29.72 -28.91,-48.12 -56.91,-88.01 -69.5,-99.02 -45.88,-40.13 -75.45,-42.52 -82.75,-6.7 -2.96,14.52 -15.48,16.4 -26.82,4.03 -4.03,-4.39 -14.65,-12.95 -23.61,-19.01 -13.25,-8.97 -17.72,-10.28 -23.97,-6.99 -22.95,12.05 -10.25,50.95 48.65,149 4.98,8.3 14.61,25.76 21.4,38.8 9.67,18.58 14.03,23.48 20.09,22.63 14.77,-2.08 11.16,-16.97 -15.64,-64.5 -14.25,-25.28 -28.79,-50.2 -32.32,-55.38 -10.27,-15.1 -19.42,-40.91 -15.38,-43.36 2,-1.22 7.97,0.58 13.26,3.98 14.27,9.18 60.27,63.97 78.25,93.21 30.91,50.26 54.15,70.64 60.89,53.41 3.04,-7.79 -3.67,-21.63 -19.92,-41.1 -15.12,-18.11 -44.01,-73.44 -53.87,-103.15 -8.44,-25.44 -4.15,-31.52 14.29,-20.27 28.11,17.16 63.46,62.17 99.01,126.09 8.93,16.06 17.78,30.14 19.66,31.27 6.8,4.13 34.1,-6.21 41.81,-15.83 4.34,-5.42 7.89,-14.55 7.89,-20.3 0,-9.18 -16.08,-50.2 -26.88,-68.6 -8,-13.62 -19.22,-46.68 -19.23,-56.63 0,-7.97 1.84,-10.37 7.94,-10.37 14.52,0 76.83,27.19 85.48,37.31 2.47,2.9 6.57,15.25 9.11,27.46 3.1,14.9 10.4,30.74 22.24,48.22 19.39,28.63 81.27,88.45 103.63,100.17 13.8,7.24 14.33,7.26 19.45,0.44 7.06,-9.41 4.47,-25.39 -9.49,-58.61 -12.31,-29.32 -24.3,-50.33 -35.57,-62.37 -3.77,-4.02 -6.85,-8.5 -6.85,-9.96 0,-1.46 -14.69,-14.9 -32.65,-29.87 -17.96,-14.96 -32.66,-28.68 -32.66,-30.48 0,-7.09 24.18,-14.98 47.06,-15.35 21.6,-0.35 40.13,3.88 96.05,21.92 10.7,3.45 7.86,-3.89 -7.24,-18.71 -17.7,-17.37 -46.78,-26.16 -87.85,-26.54 -31.36,-0.29 -44.79,3.85 -66.56,20.5 -8.71,6.65 -9.5,6.58 -30.74,-2.81 -56.61,-25.04 -93.37,-33.27 -103.63,-23.2 z m -931.99,48.57 c 28.41,18.17 82.63,72.74 94,94.61 8.22,15.81 13.75,47.74 9.96,57.45 -1.83,4.67 -4.43,5.01 -13.72,1.83 -33.9,-11.59 -142.56,-137.72 -142.56,-165.46 0,-7.73 1.35,-8.35 13.87,-6.36 7.63,1.22 24.93,9.28 38.45,17.92 z m 74.47,-48.14 c -11.72,5.73 -19.09,19.46 -19.16,35.71 -0.08,15.95 -8.97,19.47 -22.45,8.87 -22.51,-17.69 -54.52,-37.03 -69.1,-41.76 -40.52,-13.13 -58.74,14.63 -37.11,56.53 22.97,44.5 102.79,133.96 141.68,158.79 22.4,14.31 45.02,19.12 50.32,10.72 1.3,-2.08 6.38,-3.77 11.27,-3.77 7.01,0 10.65,3.96 17.07,18.61 4.48,10.24 8.15,19.58 8.15,20.76 0,1.18 4.33,10.94 9.61,21.69 5.28,10.75 9.6,20.9 9.6,22.55 0,1.66 5.34,11.52 11.86,21.92 12.05,19.23 23.55,24.51 28.09,12.91 6.15,-15.72 -43.4,-129.07 -88.08,-201.52 -19.62,-31.8 -40.86,-78.35 -43.04,-94.31 -1.76,-12.83 -1.02,-14.43 7.15,-15.56 12.83,-1.78 14.22,-17.75 2.48,-28.57 -7.71,-7.11 -10.14,-7.59 -18.34,-3.57 z m 321.32,143.16 c 18,13.78 34.48,32.17 46.84,52.28 7.45,12.11 7.72,13.99 2.29,16.04 -3.58,1.35 -12,-1.86 -20.21,-7.71 -18.04,-12.84 -55.96,-56.09 -57.56,-65.63 -1.87,-11.16 10.29,-9.02 28.64,5.02 z m -260.33,-143.87 c -16.46,16.15 -2.67,60.72 48.06,155.34 22.39,41.75 31.53,55.48 36.31,54.53 4.76,-0.95 6.29,-5.1 5.98,-16.24 -0.3,-10.91 -6,-24.19 -21.01,-48.91 -11.33,-18.67 -20.89,-35.64 -21.24,-37.71 -0.36,-2.08 -5.17,-13.42 -10.69,-25.21 -11.07,-23.64 -12.29,-31.43 -5.56,-35.52 5.09,-3.09 14.92,7.81 39.47,43.76 17.13,25.09 24.51,38.38 42.43,76.36 10.85,23.02 16.09,25.93 26.41,14.73 5.84,-6.32 5.89,-8.19 0.6,-20.62 -3.2,-7.52 -5.82,-16.96 -5.82,-20.99 0,-10.84 21.39,-26.86 35.84,-26.85 10.39,0 13.86,2.65 23.49,17.91 6.22,9.85 14.86,22.41 19.21,27.91 4.35,5.5 12.09,15.38 17.21,21.96 14.03,18.05 52.78,53.68 68.75,63.24 23.84,14.26 38.34,9.66 41.01,-13 1.72,-14.62 -18.58,-61 -34.89,-79.7 -14.9,-17.09 -72.63,-53.68 -93.78,-59.44 -11,-3 -14.36,-6.38 -18.47,-18.61 -2.76,-8.23 -5.35,-20.9 -5.76,-28.16 -0.66,-11.72 0.41,-13.33 9.53,-14.36 9.23,-1.05 26.6,6.02 46.94,19.12 10.76,6.93 32.31,30.21 78.97,85.33 43.33,51.19 60.89,68.3 70.11,68.3 7.9,0 14.62,-7.87 14.62,-17.13 0,-11.34 -12.83,-46.67 -28.76,-79.18 -15.35,-31.33 -16.18,-35.71 -6.77,-35.62 3.94,0.05 25.79,22.8 52.82,55.01 58.87,70.16 81.22,88.19 87.96,70.96 5.01,-12.82 1.57,-24.93 -18.27,-64.35 -28.7,-57.01 -42.51,-86.42 -52.44,-111.65 -8.7,-22.11 -14.48,-26.12 -23.03,-16 -5.62,6.64 -0.62,28.28 14.17,61.37 17.68,39.53 9.3,36.95 -39.59,-12.22 -23.17,-23.3 -43.53,-40.5 -49.75,-42.03 -27.23,-6.71 -29.22,17.25 -5.76,69.56 14.44,32.23 16.4,42.09 8.33,42.09 -1.65,0 -15.47,-14.79 -30.7,-32.87 -44.38,-52.66 -91.41,-87.81 -117.49,-87.81 -5.27,0 -15.18,4.91 -22.02,10.91 -13,11.39 -15.34,23.83 -10.65,56.55 1.76,12.25 0.82,13.38 -22.57,27.34 -13.42,8.01 -25.01,14.56 -25.75,14.56 -0.75,0 -12.51,-16.6 -26.14,-36.89 -24.62,-36.65 -68.58,-83.78 -78.15,-83.78 -2.75,0 -8.67,3.6 -13.16,8.01 z m -233.88,180.81 c 14.55,4.33 27.96,9.87 29.79,12.29 3.96,5.27 19.97,53.21 31.42,94.12 14.12,50.48 7.3,48.31 -48.64,-15.5 -58.27,-66.46 -74.05,-86.87 -74.05,-95.8 0,-6.99 1.65,-7.49 17.51,-5.36 9.64,1.3 29.42,5.91 43.97,10.25 z m -27.08,-178.93 c -2.11,5.44 -2.79,16.05 -1.51,23.57 3.1,18.22 19.98,69.15 31.14,93.91 4.93,10.95 8.97,23.48 8.97,27.84 0,7.48 -1.35,7.77 -24.01,5.35 -13.21,-1.42 -30.52,-4.26 -38.48,-6.31 -7.95,-2.05 -20.18,-2.68 -27.16,-1.39 -11.84,2.18 -13.74,0.99 -28.35,-17.75 -23.67,-30.38 -38.62,-55.07 -45.32,-74.87 -7.85,-23.2 -28.2,-46.67 -37.42,-43.15 -9.06,3.46 -8.52,17.42 1.43,36.8 18.53,36.1 86.25,129.31 135.18,186.08 33.58,38.96 88.75,100.92 95.22,106.94 3.36,3.13 16.09,17.13 28.29,31.1 12.19,13.98 23.93,24.35 26.08,23.05 9.8,-5.95 -1.73,-81.97 -23.94,-157.81 -10.01,-34.15 -9.86,-35.61 3.79,-38.29 6.34,-1.24 11.53,-3.49 11.53,-4.98 0,-4.48 -12.77,-14.41 -23.85,-18.55 -10.83,-4.04 -18.99,-17.55 -35.55,-58.87 -17.57,-43.85 -28.78,-80.08 -31.31,-101.21 -2.31,-19.29 -3.44,-21.35 -11.73,-21.35 -6.36,0 -10.34,3.03 -13,9.89 z m 1490.26,27.51 c 21.39,10.72 53.64,40.65 62.84,58.33 15.42,29.64 12.43,81.16 -4.9,84.44 -8.06,1.52 -49.48,-38.25 -64.53,-61.95 -20.41,-32.16 -33.45,-77.07 -24.82,-85.54 4.57,-4.49 16.64,-2.67 31.41,4.72 z m -37.82,-184.478 c -12.91,12.68 -12.34,13.532 25.56,37.789 44.82,28.7 86.56,79.669 111.49,136.139 14.78,33.46 15.3,37.63 5.76,46.1 -10.11,8.98 -18.01,7.72 -25.81,-4.13 -19.2,-29.18 -77.3,-72.59 -97.14,-72.59 -18.56,0 -39.07,28.33 -39.07,53.97 0,28.49 27.33,86.44 55.86,118.45 9.43,10.58 17.14,20.9 17.14,22.94 0,2.04 5.02,8.98 11.15,15.42 8.33,8.76 14.51,11.71 24.5,11.71 16.46,0 18.57,-2.52 31.23,-37.25 9.38,-25.7 12.43,-41.57 13.42,-69.77 0.37,-10.36 1.04,-10.77 14.46,-8.63 7.74,1.24 15.63,3.77 17.54,5.64 1.9,1.87 6.97,15.94 11.26,31.25 4.29,15.32 10.91,38.88 14.71,52.36 16.21,57.52 45.39,115.72 70.49,140.65 26.37,26.17 65.81,35.14 79.83,18.14 3.98,-4.82 7.24,-10.16 7.24,-11.86 0,-1.7 -9.07,-4.98 -20.17,-7.3 -23.64,-4.94 -31.35,-8.86 -51.02,-25.98 -16.13,-14.02 -51.75,-69.35 -51.75,-80.38 0,-3.86 -4.38,-17.59 -9.74,-30.51 -5.35,-12.92 -12.31,-34.42 -15.47,-47.77 -7.76,-32.78 -4.75,-35.73 28.64,-28.09 28.36,6.5 36.03,4.93 34.3,-7.02 -1.47,-10.16 -17.28,-18.6 -55.02,-29.38 l -26.89,-7.67 -9.03,-21.55 c -4.96,-11.85 -12.97,-30.03 -17.78,-40.4 -4.82,-10.38 -9.98,-22.77 -11.47,-27.55 -9.07,-29.07 -69.16,-97.009 -114,-128.892 -18.93,-13.461 -20.24,-13.629 -30.22,-3.836 v 0" /><path
         id="path18"
         style="fill:#404042;fill-opacity:1;fill-rule:nonzero;stroke:none"
         d="m 0,980.836 h 2759.69 v 17.1133 H 0 Z" /><path
         id="path20"
         style="fill:#404042;fill-opacity:1;fill-rule:nonzero;stroke:none"
         d="M 2899.98,980.836 H 3650 v 17.1133 h -750.02 z" /><path
         id="path22"
         style="fill:#404042;fill-opacity:1;fill-rule:nonzero;stroke:none"
         d="M 0,0 H 3644.82 V 17.1094 H 0 Z" /></g></g></svg>